# xmcd
#
# Track frame offsets: 
#        182
#        11200
#        25134
#        40320
#        53705
#        67172
#        79740
#        91336
#        106164
#        120768
#        134568
#        148113
#        162329
#        174462
#        186857
#        200675
#        214462
#        228544
#        241981
#        256187
#
# Disc length: 3605 seconds
#
# Revision: 0
# Processed by: cddbd v1.5.2PL0 Copyright (c) Steve Scherf et al.
# Submitted via: ExactAudioCopy v0.99pb5
#
DISCID=1f0e1314
DTITLE=Jim Wynn - 1945-1946
DYEAR=1900
DGENRE=Blues
TTITLE0=Buzz Buzz Buzz
TTITLE1=I Want a Little Girl
TTITLE2=I Don't Want to Cry Anymore
TTITLE3=Shipyard Woman
TTITLE4=Cherry Red
TTITLE5=Rock Boogie
TTITLE6='Deed I Do
TTITLE7=Ee-Bobaliba
TTITLE8=Butter for My Roll
TTITLE9=Juke Box Jump the Blues
TTITLE10=Gal
TTITLE11=Lost Woman Blues
TTITLE12=In a Rhapsody in Minor
TTITLE13=Jelly Kelly Blues
TTITLE14=Buzz Me Baby
TTITLE15=Winnin' with Wynn
TTITLE16=Wynn's Boogie
TTITLE17=Organ Grinder's Swing
TTITLE18=Get Yourself in Line
TTITLE19=Just in Case You Change Your Mind
EXTD=
EXTT0=
EXTT1=
EXTT2=
EXTT3=
EXTT4=
EXTT5=
EXTT6=
EXTT7=
EXTT8=
EXTT9=
EXTT10=
EXTT11=
EXTT12=
EXTT13=
EXTT14=
EXTT15=
EXTT16=
EXTT17=
EXTT18=
EXTT19=
PLAYORDER=
